<svg width="48" height="48" aria-hidden="true" viewBox="0 0 48 48" xmlns="http://www.w3.org/2000/svg"><path d="M42.1 25.5Q42 26 42 26.5Q42 27 41.9 27.6Q41.9 28.1 41.8 28.7Q41.8 29.2 41.6 29.8Q41.5 30.3 41.4 30.9Q41.2 31.4 41 32Q40.8 32.5 40.6 33Q40.3 33.5 40.1 34Q39.8 34.5 39.5 34.9Q39.2 35.4 38.9 35.9Q38.5 36.3 38.2 36.8Q37.8 37.2 37.4 37.6Q37 38 36.6 38.4Q36.1 38.7 35.7 39.1Q35.2 39.4 34.7 39.7Q34.3 40 33.8 40.3Q33.3 40.5 32.8 40.7Q32.2 40.9 31.7 41.1Q31.2 41.3 30.6 41.4Q30.1 41.6 29.5 41.7Q28.9 41.8 28.4 41.9Q27.9 41.9 27.3 42Q26.8 42 26.3 42Q25.7 42 25.2 42Q24.7 42 24.1 41.9Q23.6 41.9 23.1 41.8Q22.5 41.7 22 41.5Q21.4 41.4 20.9 41.2Q20.3 41 19.8 40.8Q19.3 40.6 18.8 40.3Q18.3 40.1 17.9 39.8Q17.4 39.5 16.9 39.2Q16.5 38.9 16.1 38.5Q15.6 38.2 15.2 37.8Q14.8 37.4 14.4 37Q14 36.6 13.7 36.2Q13.3 35.7 13 35.3Q12.7 34.8 12.4 34.4Q12.1 33.9 11.8 33.4Q11.6 32.9 11.4 32.4Q11.2 31.9 11 31.4Q10.8 30.8 10.7 30.3Q10.6 29.7 10.5 29.2Q10.4 28.6 10.4 28.1Q10.3 27.6 10.3 27Q10.3 26.5 10.3 26Q10.3 25.5 10.3 25Q10.4 24.4 10.4 23.9Q10.5 23.4 10.6 22.8Q10.7 22.3 10.8 21.8Q11 21.2 11.2 20.7Q11.3 20.2 11.6 19.7Q11.8 19.2 12 18.7Q12.3 18.2 12.5 17.7Q12.8 17.3 13.1 16.8Q13.4 16.4 13.8 15.9Q14.1 15.5 14.5 15.1Q14.9 14.7 15.3 14.3Q15.7 13.9 16.1 13.5Q16.5 13.2 17 12.8Q17.4 12.5 17.9 12.2Q18.3 11.9 18.8 11.6Q19.3 11.4 19.8 11.1Q20.3 10.9 20.8 10.7Q21.4 10.5 21.9 10.4Q22.5 10.2 23 10.1Q23.6 10 24.1 10Q24.7 9.9 25.2 9.9Q25.7 9.9 26.3 9.9Q26.8 9.9 27.3 10Q27.9 10 28.4 10.1Q28.9 10.2 29.5 10.3Q30 10.4 30.6 10.6Q31.1 10.7 31.7 10.9Q32.2 11.1 32.7 11.4Q33.2 11.6 33.7 11.8Q34.2 12.1 34.7 12.4Q35.1 12.7 35.6 13Q36 13.4 36.5 13.7Q36.9 14.1 37.3 14.5Q37.7 14.9 38.1 15.3Q38.4 15.8 38.8 16.2Q39.1 16.6 39.4 17.1Q39.8 17.6 40 18Q40.3 18.5 40.6 19Q40.8 19.5 41 20Q41.3 20.5 41.4 21.1Q41.6 21.6 41.8 22.2Q41.9 22.7 42 23.3Q42.1 23.9 42.1 24.4Q42.2 24.9 42.1 25.5Z" fill="#9BAF86"></path><g><g><path d="M24.52,40.93 Q22.30,42.22 20.90,42.03 T18.17,41.45 15.61,40.50 13.22,39.16 11.05,37.43 9.17,35.35 7.66,33.02 6.53,30.48 5.78,27.79 5.43,25.11 5.47,22.48 5.89,19.81 6.69,17.16 7.85,14.66 9.36,12.34 11.23,10.25 13.39,8.47 15.78,7.07 18.39,6.06 21.11,5.46 23.78,5.27 26.45,5.46 29.17,6.05 31.78,7.05 34.16,8.45 36.29,10.23 38.10,12.30 39.58,14.57 40.72,16.99 41.55,19.55 42.02,22.16 42.11,24.73 41.81,27.33 41.08,29.93 39.97,32.38 38.54,34.61 36.81,36.65 34.82,38.44 32.62,39.92 30.19,41.08 27.58,41.88 24.96,42.26 22.36,42.12 20.45,41.20 19.84,40.51 19.84,40.51 20.59,40.10 22.46,39.68 24.68,39.61 26.90,39.29 29.11,38.60 31.18,37.61 33.08,36.34 34.79,34.82 36.27,33.07 37.46,31.15 38.36,29.08 38.94,26.88 39.21,24.70 39.19,22.53 38.85,20.30 38.18,18.09 37.20,16.02 35.91,14.12 34.34,12.44 32.54,11.01 30.57,9.90 28.42,9.10 26.16,8.65 23.95,8.56 21.75,8.79 19.52,9.34 17.38,10.16 15.40,11.24 13.56,12.61 11.95,14.25 10.62,16.12 9.59,18.18 8.88,20.40 8.49,22.66 8.39,24.89 8.62,27.15 9.19,29.42 10.13,31.55 11.40,33.48 12.97,35.19 14.79,36.65 16.78,37.83 18.92,38.73 21.21,39.32 23.45,40.23 Z" fill="currentColor"></path></g><g><path d="M15.82,24.68 Q18.60,24.98 19.50,25.85 T21.11,27.51 22.59,27.18 24.21,25.20 25.90,23.50 27.55,21.77 29.21,20.04 31.45,18.76 32.84,18.34 32.84,18.34 32.52,19.76 31.41,22.09 29.79,23.88 28.13,25.64 26.48,27.41 24.80,29.20 23.08,30.69 21.14,31.15 19.02,30.12 17.08,28.33 16.00,26.07 Z" fill="#34402A"></path></g></g></svg>